<mxfile host="app.diagrams.net" modified="2024-04-02T00:20:16.196Z" agent="Mozilla/5.0 (Windows NT 10.0; Win64; x64) AppleWebKit/537.36 (KHTML, like Gecko) Chrome/123.0.0.0 Safari/537.36" etag="j9x3MtDlv8q1rOMUHjRZ" version="24.2.1" type="google">
  <diagram name="Página-1" id="W96qsjiCgVPILVUTgbw7">
    <mxGraphModel grid="0" page="0" gridSize="10" guides="1" tooltips="1" connect="1" arrows="1" fold="1" pageScale="1" pageWidth="827" pageHeight="1169" math="0" shadow="0">
      <root>
        <mxCell id="0" />
        <mxCell id="1" parent="0" />
        <mxCell id="JLs1hbFGK3mNBrMvpL7n-9" style="edgeStyle=orthogonalEdgeStyle;rounded=0;orthogonalLoop=1;jettySize=auto;html=1;exitX=0.5;exitY=0.5;exitDx=0;exitDy=0;exitPerimeter=0;entryX=0;entryY=0.5;entryDx=0;entryDy=0;fontSize=12;startSize=8;endSize=8;" edge="1" parent="1" source="7GfxxB9h6kD8QiFGx-IR-1" target="JLs1hbFGK3mNBrMvpL7n-4">
          <mxGeometry relative="1" as="geometry" />
        </mxCell>
        <mxCell id="JLs1hbFGK3mNBrMvpL7n-31" style="edgeStyle=orthogonalEdgeStyle;rounded=0;orthogonalLoop=1;jettySize=auto;html=1;exitX=0.5;exitY=0.5;exitDx=0;exitDy=0;exitPerimeter=0;entryX=0;entryY=0.5;entryDx=0;entryDy=0;fontSize=12;startSize=8;endSize=8;" edge="1" parent="1" source="7GfxxB9h6kD8QiFGx-IR-1" target="JLs1hbFGK3mNBrMvpL7n-30">
          <mxGeometry relative="1" as="geometry" />
        </mxCell>
        <mxCell id="JLs1hbFGK3mNBrMvpL7n-32" style="edgeStyle=orthogonalEdgeStyle;rounded=0;orthogonalLoop=1;jettySize=auto;html=1;exitX=0.5;exitY=0.5;exitDx=0;exitDy=0;exitPerimeter=0;entryX=0;entryY=0.5;entryDx=0;entryDy=0;fontSize=12;startSize=8;endSize=8;" edge="1" parent="1" source="7GfxxB9h6kD8QiFGx-IR-1" target="JLs1hbFGK3mNBrMvpL7n-29">
          <mxGeometry relative="1" as="geometry">
            <Array as="points">
              <mxPoint x="-200" y="278" />
              <mxPoint x="-200" y="222" />
            </Array>
          </mxGeometry>
        </mxCell>
        <mxCell id="7GfxxB9h6kD8QiFGx-IR-1" value="Usuario&lt;div&gt;&lt;br&gt;&lt;/div&gt;" style="shape=umlActor;verticalLabelPosition=bottom;verticalAlign=top;html=1;outlineConnect=0;" vertex="1" parent="1">
          <mxGeometry x="-274" y="248" width="30" height="60" as="geometry" />
        </mxCell>
        <mxCell id="JLs1hbFGK3mNBrMvpL7n-27" style="edgeStyle=orthogonalEdgeStyle;rounded=0;orthogonalLoop=1;jettySize=auto;html=1;exitX=0.5;exitY=0.5;exitDx=0;exitDy=0;exitPerimeter=0;entryX=1;entryY=0.5;entryDx=0;entryDy=0;fontSize=12;startSize=8;endSize=8;" edge="1" parent="1" source="7GfxxB9h6kD8QiFGx-IR-2" target="JLs1hbFGK3mNBrMvpL7n-25">
          <mxGeometry relative="1" as="geometry" />
        </mxCell>
        <mxCell id="JLs1hbFGK3mNBrMvpL7n-28" style="edgeStyle=orthogonalEdgeStyle;rounded=0;orthogonalLoop=1;jettySize=auto;html=1;exitX=0.5;exitY=0.5;exitDx=0;exitDy=0;exitPerimeter=0;entryX=1;entryY=0.5;entryDx=0;entryDy=0;fontSize=12;startSize=8;endSize=8;" edge="1" parent="1" source="7GfxxB9h6kD8QiFGx-IR-2" target="JLs1hbFGK3mNBrMvpL7n-24">
          <mxGeometry relative="1" as="geometry" />
        </mxCell>
        <mxCell id="7GfxxB9h6kD8QiFGx-IR-2" value="Vehiculo" style="shape=umlActor;verticalLabelPosition=bottom;verticalAlign=top;html=1;outlineConnect=0;" vertex="1" parent="1">
          <mxGeometry x="433" y="424.5" width="30" height="60" as="geometry" />
        </mxCell>
        <mxCell id="JLs1hbFGK3mNBrMvpL7n-19" style="edgeStyle=orthogonalEdgeStyle;rounded=0;orthogonalLoop=1;jettySize=auto;html=1;exitX=0.5;exitY=0.5;exitDx=0;exitDy=0;exitPerimeter=0;entryX=0;entryY=0.5;entryDx=0;entryDy=0;fontSize=12;startSize=8;endSize=8;" edge="1" parent="1" source="XJMGst-rCKcoRZPM2Gby-3" target="JLs1hbFGK3mNBrMvpL7n-16">
          <mxGeometry relative="1" as="geometry">
            <Array as="points">
              <mxPoint x="-211" y="458" />
              <mxPoint x="-211" y="434" />
            </Array>
          </mxGeometry>
        </mxCell>
        <mxCell id="JLs1hbFGK3mNBrMvpL7n-20" style="edgeStyle=orthogonalEdgeStyle;rounded=0;orthogonalLoop=1;jettySize=auto;html=1;exitX=0.5;exitY=0.5;exitDx=0;exitDy=0;exitPerimeter=0;entryX=0.5;entryY=1;entryDx=0;entryDy=0;fontSize=12;startSize=8;endSize=8;" edge="1" parent="1" source="XJMGst-rCKcoRZPM2Gby-3" target="JLs1hbFGK3mNBrMvpL7n-4">
          <mxGeometry relative="1" as="geometry">
            <Array as="points">
              <mxPoint x="-212" y="458" />
              <mxPoint x="-212" y="396" />
              <mxPoint x="-94" y="396" />
            </Array>
          </mxGeometry>
        </mxCell>
        <mxCell id="JLs1hbFGK3mNBrMvpL7n-26" style="edgeStyle=orthogonalEdgeStyle;rounded=0;orthogonalLoop=1;jettySize=auto;html=1;exitX=0.5;exitY=0.5;exitDx=0;exitDy=0;exitPerimeter=0;entryX=0;entryY=0.5;entryDx=0;entryDy=0;fontSize=12;startSize=8;endSize=8;" edge="1" parent="1" source="XJMGst-rCKcoRZPM2Gby-3" target="JLs1hbFGK3mNBrMvpL7n-21">
          <mxGeometry relative="1" as="geometry">
            <Array as="points">
              <mxPoint x="-213" y="458" />
              <mxPoint x="-213" y="488" />
            </Array>
          </mxGeometry>
        </mxCell>
        <mxCell id="XJMGst-rCKcoRZPM2Gby-3" value="Administrador" style="shape=umlActor;verticalLabelPosition=bottom;verticalAlign=top;html=1;outlineConnect=0;" vertex="1" parent="1">
          <mxGeometry x="-277" y="428" width="30" height="60" as="geometry" />
        </mxCell>
        <mxCell id="XJMGst-rCKcoRZPM2Gby-4" value="" style="rounded=1;whiteSpace=wrap;html=1;arcSize=13;fillColor=none;" vertex="1" parent="1">
          <mxGeometry x="-185" y="181" width="509" height="367" as="geometry" />
        </mxCell>
        <mxCell id="XJMGst-rCKcoRZPM2Gby-5" value="Aplicación" style="text;html=1;align=center;verticalAlign=middle;resizable=0;points=[];autosize=1;strokeColor=none;fillColor=none;" vertex="1" parent="1">
          <mxGeometry x="12" y="153" width="73" height="26" as="geometry" />
        </mxCell>
        <mxCell id="JLs1hbFGK3mNBrMvpL7n-11" style="edgeStyle=none;curved=1;rounded=0;orthogonalLoop=1;jettySize=auto;html=1;entryX=0;entryY=0.5;entryDx=0;entryDy=0;fontSize=12;startSize=8;endSize=8;" edge="1" parent="1" source="JLs1hbFGK3mNBrMvpL7n-4" target="JLs1hbFGK3mNBrMvpL7n-5">
          <mxGeometry relative="1" as="geometry" />
        </mxCell>
        <mxCell id="JLs1hbFGK3mNBrMvpL7n-4" value="Obtiene los vehículos disponibles" style="rounded=1;whiteSpace=wrap;html=1;" vertex="1" parent="1">
          <mxGeometry x="-153" y="311" width="120" height="42" as="geometry" />
        </mxCell>
        <mxCell id="JLs1hbFGK3mNBrMvpL7n-12" style="edgeStyle=none;curved=1;rounded=0;orthogonalLoop=1;jettySize=auto;html=1;entryX=0;entryY=0.5;entryDx=0;entryDy=0;fontSize=12;startSize=8;endSize=8;" edge="1" parent="1" source="JLs1hbFGK3mNBrMvpL7n-5" target="JLs1hbFGK3mNBrMvpL7n-8">
          <mxGeometry relative="1" as="geometry" />
        </mxCell>
        <mxCell id="JLs1hbFGK3mNBrMvpL7n-5" value="Alquila un vehículo" style="rounded=1;whiteSpace=wrap;html=1;" vertex="1" parent="1">
          <mxGeometry x="6" y="317" width="119" height="36" as="geometry" />
        </mxCell>
        <mxCell id="JLs1hbFGK3mNBrMvpL7n-8" value="Notifica la a asignación y el tiempo" style="rounded=1;whiteSpace=wrap;html=1;" vertex="1" parent="1">
          <mxGeometry x="164" y="314" width="120" height="48" as="geometry" />
        </mxCell>
        <mxCell id="JLs1hbFGK3mNBrMvpL7n-13" style="edgeStyle=orthogonalEdgeStyle;rounded=0;orthogonalLoop=1;jettySize=auto;html=1;fontSize=12;startSize=8;endSize=8;" edge="1" parent="1" source="JLs1hbFGK3mNBrMvpL7n-8">
          <mxGeometry relative="1" as="geometry">
            <mxPoint x="448" y="416" as="targetPoint" />
          </mxGeometry>
        </mxCell>
        <mxCell id="JLs1hbFGK3mNBrMvpL7n-16" value="Lista vehículos" style="rounded=1;whiteSpace=wrap;html=1;" vertex="1" parent="1">
          <mxGeometry x="-152" y="416" width="120" height="35.5" as="geometry" />
        </mxCell>
        <mxCell id="JLs1hbFGK3mNBrMvpL7n-21" value="Añade vehiculos" style="rounded=1;whiteSpace=wrap;html=1;" vertex="1" parent="1">
          <mxGeometry x="-154" y="470" width="120" height="35.5" as="geometry" />
        </mxCell>
        <mxCell id="JLs1hbFGK3mNBrMvpL7n-24" value="Actualiza estado del vehiculo" style="rounded=1;whiteSpace=wrap;html=1;" vertex="1" parent="1">
          <mxGeometry x="175" y="408" width="120" height="35.5" as="geometry" />
        </mxCell>
        <mxCell id="JLs1hbFGK3mNBrMvpL7n-25" value="Actualiza estado" style="rounded=1;whiteSpace=wrap;html=1;" vertex="1" parent="1">
          <mxGeometry x="177" y="468" width="120" height="35.5" as="geometry" />
        </mxCell>
        <mxCell id="JLs1hbFGK3mNBrMvpL7n-29" value="Revisa Historial de alquileres" style="rounded=1;whiteSpace=wrap;html=1;" vertex="1" parent="1">
          <mxGeometry x="-151" y="205" width="119" height="36" as="geometry" />
        </mxCell>
        <mxCell id="JLs1hbFGK3mNBrMvpL7n-30" value="Revisa Historial de alquileres" style="rounded=1;whiteSpace=wrap;html=1;" vertex="1" parent="1">
          <mxGeometry x="-151" y="260" width="119" height="36" as="geometry" />
        </mxCell>
      </root>
    </mxGraphModel>
  </diagram>
</mxfile>
